# xmcd
#
# Track frame offsets: 
#        150
#        15087
#        54220
#        71870
#        95301
#        109077
#        129071
#        166765
#        178932
#        195887
#        211203
#        231202
#        250859
#        274005
#
# Disc length: 3940 seconds
#
# Revision: 1
# Processed by: cddbd v1.5.2PL0 Copyright (c) Steve Scherf et al.
# Submitted via: ExactAudioCopy v0.99pb5
#
DISCID=aa0f620e
DTITLE=Guy Davis - Skunkmello
DYEAR=2006
DGENRE=Blues
TTITLE0=Natural Born Eas'Man
TTITLE1=Going Down Slow
TTITLE2=The Chocolate Man
TTITLE3=It Takes Love To Make A Home
TTITLE4=Shaky Pudding
TTITLE5=Po' Boy, Great Long Ways From Home
TTITLE6=Blues In The Midnight Hour
TTITLE7=Blackberry Ramble
TTITLE8=Fonza Curry
TTITLE9=Maggie Campbell Blues
TTITLE10=Skunkmello's Dance Of The Chickens
TTITLE11=Hooking Bull At The Landing
TTITLE12=Shooting Star
TTITLE13=Uncle Tom Is Dead (milk 'n' cookies remix)
EXTD=YEAR: 2006
EXTT0=
EXTT1=
EXTT2=
EXTT3=
EXTT4=
EXTT5=
EXTT6=
EXTT7=
EXTT8=
EXTT9=
EXTT10=
EXTT11=
EXTT12=
EXTT13=
PLAYORDER=
